<svg xmlns="http://www.w3.org/2000/svg" viewBox="0 0 256 256">
  <defs>
    <linearGradient id="g" x1="0%" y1="0%" x2="100%" y2="100%">
      <stop offset="0%" stop-color="#6366F1" />
      <stop offset="100%" stop-color="#22D3EE" />
    </linearGradient>
  </defs>
  <rect width="256" height="256" rx="72" fill="url(#g)" />
  <path
    d="M86 188c8-52 32-116 42-120 8-2 26 38 34 66 10-12 26-24 38-24 20 0 32 16 32 36 0 4 0 8-2 14l-4 10c-10 22-26 34-46 34-18 0-30-8-40-24-12 10-28 20-44 20-22 0-44-14-44-44 0-36 26-82 54-106l14-4c6 0 10 2 12 6"
    fill="#fff"
    stroke="#fff"
    stroke-linecap="round"
    stroke-linejoin="round"
    stroke-width="8"
  />
</svg>
